<svg width="32" height="32" viewBox="0 0 32 32" fill="none" xmlns="http://www.w3.org/2000/svg">
<g id="Standard Collection 0">
<g id="Clip path group">
<mask id="mask0_129_238" style="mask-type:luminance" maskUnits="userSpaceOnUse" x="0" y="0" width="32" height="32">
<g id="clip0">
<path id="Vector" d="M31.6688 0H0V32H31.6688V0Z" fill="white"/>
</g>
</mask>
<g mask="url(#mask0_129_238)">
<g id="Group">
<path id="Vector_2" d="M27.0146 27.2889C30.0007 24.2913 31.6748 20.231 31.669 15.9999C31.6658 15.7388 31.5599 15.4894 31.3741 15.3058C31.1883 15.1222 30.9377 15.0194 30.6766 15.0194C30.4153 15.0194 30.1647 15.1222 29.9789 15.3058C29.793 15.4894 29.6871 15.7388 29.684 15.9999C29.6882 19.7078 28.2203 23.266 25.6031 25.8925C24.3325 27.1969 22.8136 28.2337 21.1358 28.9417C19.4581 29.6495 17.6555 30.0142 15.8346 30.0142C14.0136 30.0142 12.2111 29.6495 10.5334 28.9417C8.85566 28.2337 7.3367 27.1969 6.06613 25.8925C3.45237 23.2634 1.98528 19.7067 1.98528 15.9993C1.98528 12.2919 3.45237 8.73522 6.06613 6.10602C7.3293 4.81163 8.83686 3.78086 10.5014 3.07347C12.1659 2.3661 13.9543 1.99618 15.7629 1.98517C16.1491 1.99727 16.5152 2.15976 16.7833 2.43799C17.0514 2.7162 17.2002 3.08815 17.1978 3.47449C17.1957 3.86084 17.0426 4.23102 16.7713 4.50612C16.5 4.7812 16.132 4.93941 15.7457 4.94701C15.7099 4.94708 15.6741 4.94907 15.6386 4.95295C12.8871 5.04156 10.2763 6.19047 8.35215 8.15942C6.32014 10.205 5.17969 12.9712 5.17969 15.8545C5.17969 18.7378 6.32014 21.504 8.35215 23.5496C9.34486 24.5665 10.5309 25.3746 11.8405 25.9263C13.1502 26.478 14.557 26.7621 15.978 26.7621C17.399 26.7621 18.8059 26.478 20.1155 25.9263C21.425 25.3746 22.6111 24.5665 23.6038 23.5496C25.639 21.5062 26.7799 18.7386 26.7759 15.8545C26.7801 15.4003 26.6942 14.9495 26.5233 14.5286C26.3522 14.1078 26.0996 13.7249 25.7798 13.4022C25.46 13.0795 25.0795 12.8233 24.6602 12.6485C24.2409 12.4737 23.7911 12.3837 23.3368 12.3837C22.8824 12.3837 22.4327 12.4737 22.0134 12.6485C21.594 12.8233 21.2135 13.0795 20.8937 13.4022C20.5739 13.7249 20.3213 14.1078 20.1503 14.5286C19.9794 14.9495 19.8935 15.4003 19.8977 15.8545C19.8977 15.8835 19.8996 15.9107 19.9019 15.9385C19.8996 15.9663 19.8977 15.9941 19.8977 16.0225C19.9042 16.8145 19.6752 17.5906 19.2398 18.2523C18.8046 18.914 18.1825 19.4313 17.4526 19.739C16.7228 20.0465 15.9179 20.1303 15.1404 19.9798C14.3628 19.8292 13.6474 19.4512 13.0851 18.8934C12.5227 18.3356 12.1387 17.6234 11.9818 16.8471C11.8249 16.0707 11.9022 15.2653 12.2038 14.533C12.5053 13.8005 13.0177 13.1743 13.6758 12.7336C14.3339 12.2928 15.1081 12.0575 15.9001 12.0575C16.0314 12.0591 16.1618 12.0346 16.2836 11.9854C16.4054 11.9363 16.5162 11.8634 16.6096 11.7711C16.7031 11.6788 16.7774 11.5688 16.8279 11.4476C16.8786 11.3264 16.9047 11.1963 16.9047 11.065C16.9047 10.9336 16.8786 10.8036 16.8279 10.6824C16.7774 10.5612 16.7031 10.4512 16.6096 10.3589C16.5162 10.2666 16.4054 10.1937 16.2836 10.1445C16.1618 10.0954 16.0314 10.0709 15.9001 10.0725C14.7247 10.079 13.5775 10.4335 12.6034 11.0913C11.6292 11.7491 10.8717 12.6806 10.4264 13.7685C9.98111 14.8563 9.86799 16.0516 10.1013 17.2037C10.3346 18.3557 10.9039 19.4128 11.7374 20.2417C12.5708 21.0705 13.6311 21.6339 14.7845 21.8609C15.9377 22.0877 17.1325 21.9679 18.2178 21.5166C19.3031 21.0653 20.2305 20.3027 20.8829 19.3249C21.5352 18.3471 21.8833 17.1979 21.8833 16.0225C21.8833 15.9935 21.8814 15.9663 21.8791 15.9385C21.8814 15.9107 21.8833 15.8829 21.8833 15.8545C21.8794 15.6611 21.9141 15.4689 21.9855 15.289C22.0568 15.1093 22.1634 14.9455 22.2987 14.8075C22.4341 14.6693 22.5958 14.5595 22.7741 14.4846C22.9524 14.4097 23.144 14.3711 23.3373 14.3711C23.5307 14.3711 23.7223 14.4097 23.9006 14.4846C24.0789 14.5595 24.2406 14.6693 24.376 14.8075C24.5113 14.9455 24.6179 15.1093 24.6891 15.289C24.7605 15.4689 24.7953 15.6611 24.7914 15.8545C24.794 18.2157 23.8593 20.4813 22.1927 22.1537C21.3846 22.984 20.4184 23.6437 19.351 24.0943C18.2837 24.5449 17.1369 24.777 15.9783 24.777C14.8199 24.777 13.6731 24.5449 12.6057 24.0943C11.5384 23.6437 10.5721 22.984 9.76405 22.1537C8.09962 20.4798 7.16536 18.2151 7.16536 15.8545C7.16536 13.4939 8.09962 11.2292 9.76405 9.55525C10.5728 8.7261 11.539 8.06693 12.6061 7.61646C13.6732 7.16598 14.8194 6.93329 15.9777 6.93205C16.0668 6.9318 16.1554 6.91953 16.2413 6.89555C17.0863 6.76596 17.8535 6.32896 18.3961 5.6684C18.9387 5.00783 19.2182 4.1702 19.1811 3.31621C19.1441 2.4622 18.7928 1.65197 18.1951 1.04093C17.5973 0.429883 16.795 0.0610579 15.9421 0.00520608C15.9064 0.00132509 15.8705 -0.000657235 15.8346 -0.000732422C15.8146 -0.000732422 15.7948 -0.000732422 15.7748 -0.000732422C15.7649 -0.000732422 15.7554 -0.000732422 15.7458 -0.000732422C15.7363 -0.000732422 15.7264 0.000425504 15.7169 0.000715185C13.6535 0.0169425 11.6137 0.44145 9.71513 1.24976C7.81656 2.05807 6.0968 3.2342 4.65495 4.71034C1.6737 7.71112 0.000488281 11.7693 0.000488281 15.9993C0.000488281 20.2293 1.6737 24.2874 4.65495 27.2882C6.11012 28.7793 7.84889 29.9644 9.76889 30.7733C11.6889 31.5824 13.7514 31.9993 15.8349 31.9993C17.9184 31.9993 19.9808 31.5824 21.901 30.7733C23.821 29.9644 25.5596 28.7793 27.0148 27.2882L27.0146 27.2889Z" fill="url(#paint0_linear_129_238)"/>
</g>
</g>
</g>
</g>
<defs>
<linearGradient id="paint0_linear_129_238" x1="4.59242" y1="27.2313" x2="24.7169" y2="7.5368" gradientUnits="userSpaceOnUse">
<stop stop-color="#41287B"/>
<stop offset="0.123" stop-color="#462779"/>
<stop offset="0.284" stop-color="#572775"/>
<stop offset="0.465" stop-color="#72266E"/>
<stop offset="0.663" stop-color="#982565"/>
<stop offset="0.87" stop-color="#C82459"/>
<stop offset="0.99" stop-color="#E72452"/>
</linearGradient>
</defs>
</svg>
